<?xml version="1.0" encoding="UTF-8" standalone="no"?>
<svg
   xmlns:sketch="http://www.bohemiancoding.com/sketch/ns"
   xmlns:dc="http://purl.org/dc/elements/1.1/"
   xmlns:cc="http://creativecommons.org/ns#"
   xmlns:rdf="http://www.w3.org/1999/02/22-rdf-syntax-ns#"
   xmlns:svg="http://www.w3.org/2000/svg"
   xmlns="http://www.w3.org/2000/svg"
   width="24px"
   height="24px"
   viewBox="0 0 24 24"
   version="1.1"
   id="svg14">
  <metadata
     id="metadata18">
    <rdf:RDF>
      <cc:Work
         rdf:about="">
        <dc:format>image/svg+xml</dc:format>
        <dc:type
           rdf:resource="http://purl.org/dc/dcmitype/StillImage" />
        <dc:title>icon_newmessages</dc:title>
      </cc:Work>
    </rdf:RDF>
  </metadata>
  <title
     id="title2">icon_newmessages</title>
  <desc
     id="desc4">Created with Sketch.</desc>
  <defs
     id="defs6" />
  <g
     id="02-Chat"
     stroke="none"
     stroke-width="1"
     fill="none"
     fill-rule="evenodd"
     sketch:type="MSPage">
    <g
       id="02_7-Chat-new-messages"
       sketch:type="MSArtboardGroup"
       transform="translate(-809.000000, -325.000000)">
      <g
         id="icon_newmessages"
         sketch:type="MSLayerGroup"
         transform="translate(809.000000, 325.000000)">
        <circle
           id="Oval-1909"
           fill-opacity="0.5"
           fill="#454545"
           sketch:type="MSShapeGroup"
           cx="12"
           cy="12"
           r="12" />
        <path
           d="m 7.5740714,11.526774 c -0.1469622,0 -0.2939244,-0.05588 -0.4064423,-0.168394 -0.223505,-0.224271 -0.223505,-0.587084 0,-0.811354 L 11.548174,6.1680115 C 11.77168,5.943741 12.135258,5.9445065 12.359528,6.167246 l 4.385904,4.372891 c 0.22427,0.224271 0.225036,0.587849 0.0015,0.812119 -0.223505,0.225036 -0.587084,0.225036 -0.811354,0.0015 l -3.413044,-3.4030933 -0.0015,9.4752353 C 12.521034,17.742816 12.263084,18 11.946963,18 11.62931,18 11.372891,17.742816 11.372891,17.425929 l 0.0015,-9.4606922 -3.3946736,3.3931432 c -0.1117526,0.112518 -0.2587148,0.168394 -0.405677,0.168394 z"
           fill="#ffffff"
           sketch:type="MSShapeGroup"
           id="path9" />
      </g>
    </g>
  </g>
</svg>
